<mxfile host="Electron" modified="2024-12-05T11:24:12.726Z" agent="Mozilla/5.0 (Windows NT 10.0; Win64; x64) AppleWebKit/537.36 (KHTML, like Gecko) draw.io/22.0.2 Chrome/114.0.5735.289 Electron/25.8.4 Safari/537.36" etag="6Cu2z5UPpVvjNgog6ECM" version="22.0.2" type="device">
  <diagram name="Page-1" id="R3WLekrkpWj5xpTW2a_f">
    <mxGraphModel dx="1182" dy="690" grid="1" gridSize="10" guides="1" tooltips="1" connect="1" arrows="1" fold="1" page="1" pageScale="1" pageWidth="827" pageHeight="1169" math="0" shadow="0">
      <root>
        <mxCell id="0" />
        <mxCell id="1" parent="0" />
        <mxCell id="OmiWxl2veFAxwWWV_WMY-3" value="Haal sensor data op" style="rounded=1;whiteSpace=wrap;html=1;" parent="1" vertex="1">
          <mxGeometry x="354" y="160" width="120" height="60" as="geometry" />
        </mxCell>
        <mxCell id="OmiWxl2veFAxwWWV_WMY-5" style="edgeStyle=orthogonalEdgeStyle;rounded=0;orthogonalLoop=1;jettySize=auto;html=1;entryX=0.5;entryY=0;entryDx=0;entryDy=0;" parent="1" source="OmiWxl2veFAxwWWV_WMY-3" target="OmiWxl2veFAxwWWV_WMY-6" edge="1">
          <mxGeometry relative="1" as="geometry">
            <mxPoint x="412.44000000000005" y="285.9799999999999" as="targetPoint" />
          </mxGeometry>
        </mxCell>
        <mxCell id="OmiWxl2veFAxwWWV_WMY-10" style="edgeStyle=orthogonalEdgeStyle;rounded=0;orthogonalLoop=1;jettySize=auto;html=1;" parent="1" source="OmiWxl2veFAxwWWV_WMY-6" target="OmiWxl2veFAxwWWV_WMY-9" edge="1">
          <mxGeometry relative="1" as="geometry" />
        </mxCell>
        <mxCell id="OmiWxl2veFAxwWWV_WMY-11" value="Obstakel in 10cm&lt;br&gt;&amp;nbsp;voor ons" style="edgeLabel;html=1;align=center;verticalAlign=middle;resizable=0;points=[];" parent="OmiWxl2veFAxwWWV_WMY-10" vertex="1" connectable="0">
          <mxGeometry x="0.1171" y="-2" relative="1" as="geometry">
            <mxPoint as="offset" />
          </mxGeometry>
        </mxCell>
        <mxCell id="OmiWxl2veFAxwWWV_WMY-12" style="edgeStyle=orthogonalEdgeStyle;rounded=0;orthogonalLoop=1;jettySize=auto;html=1;entryX=0.5;entryY=0;entryDx=0;entryDy=0;" parent="1" source="OmiWxl2veFAxwWWV_WMY-6" target="dMzhbLmqPAqjWgNeFanf-15" edge="1">
          <mxGeometry relative="1" as="geometry">
            <mxPoint x="420" y="400" as="targetPoint" />
          </mxGeometry>
        </mxCell>
        <mxCell id="OmiWxl2veFAxwWWV_WMY-13" value="Niks gevonden" style="edgeLabel;html=1;align=center;verticalAlign=middle;resizable=0;points=[];" parent="OmiWxl2veFAxwWWV_WMY-12" vertex="1" connectable="0">
          <mxGeometry x="-0.1571" y="-1" relative="1" as="geometry">
            <mxPoint x="1" y="-4" as="offset" />
          </mxGeometry>
        </mxCell>
        <mxCell id="OmiWxl2veFAxwWWV_WMY-6" value="" style="rhombus;whiteSpace=wrap;html=1;" parent="1" vertex="1">
          <mxGeometry x="386" y="300" width="56" height="50" as="geometry" />
        </mxCell>
        <mxCell id="OmiWxl2veFAxwWWV_WMY-19" style="edgeStyle=orthogonalEdgeStyle;rounded=0;orthogonalLoop=1;jettySize=auto;html=1;entryX=0;entryY=0.5;entryDx=0;entryDy=0;exitX=0.5;exitY=1;exitDx=0;exitDy=0;" parent="1" source="OmiWxl2veFAxwWWV_WMY-9" target="OmiWxl2veFAxwWWV_WMY-18" edge="1">
          <mxGeometry relative="1" as="geometry" />
        </mxCell>
        <mxCell id="OmiWxl2veFAxwWWV_WMY-9" value="activeer rechter wiel om 90 graden te draaien" style="rounded=1;whiteSpace=wrap;html=1;" parent="1" vertex="1">
          <mxGeometry x="120" y="360" width="120" height="60" as="geometry" />
        </mxCell>
        <mxCell id="dMzhbLmqPAqjWgNeFanf-1" value="" style="rhombus;whiteSpace=wrap;html=1;" vertex="1" parent="1">
          <mxGeometry x="399" y="100" width="30" height="30" as="geometry" />
        </mxCell>
        <mxCell id="dMzhbLmqPAqjWgNeFanf-2" style="edgeStyle=orthogonalEdgeStyle;rounded=0;orthogonalLoop=1;jettySize=auto;html=1;entryX=0.502;entryY=-0.037;entryDx=0;entryDy=0;entryPerimeter=0;" edge="1" parent="1" source="dMzhbLmqPAqjWgNeFanf-1" target="OmiWxl2veFAxwWWV_WMY-3">
          <mxGeometry relative="1" as="geometry" />
        </mxCell>
        <mxCell id="dMzhbLmqPAqjWgNeFanf-3" value="Vertical Container" style="swimlane;whiteSpace=wrap;html=1;" vertex="1" parent="1">
          <mxGeometry x="110" y="20" width="490" height="680" as="geometry" />
        </mxCell>
        <mxCell id="dMzhbLmqPAqjWgNeFanf-16" style="edgeStyle=orthogonalEdgeStyle;rounded=0;orthogonalLoop=1;jettySize=auto;html=1;entryX=0.5;entryY=0;entryDx=0;entryDy=0;" edge="1" parent="dMzhbLmqPAqjWgNeFanf-3" source="dMzhbLmqPAqjWgNeFanf-15" target="OmiWxl2veFAxwWWV_WMY-18">
          <mxGeometry relative="1" as="geometry" />
        </mxCell>
        <mxCell id="dMzhbLmqPAqjWgNeFanf-15" value="rij naar voren" style="rounded=1;whiteSpace=wrap;html=1;" vertex="1" parent="dMzhbLmqPAqjWgNeFanf-3">
          <mxGeometry x="244" y="380" width="120" height="60" as="geometry" />
        </mxCell>
        <mxCell id="dMzhbLmqPAqjWgNeFanf-19" style="edgeStyle=orthogonalEdgeStyle;rounded=0;orthogonalLoop=1;jettySize=auto;html=1;entryX=0.5;entryY=1;entryDx=0;entryDy=0;" edge="1" parent="dMzhbLmqPAqjWgNeFanf-3" source="OmiWxl2veFAxwWWV_WMY-18" target="dMzhbLmqPAqjWgNeFanf-18">
          <mxGeometry relative="1" as="geometry" />
        </mxCell>
        <mxCell id="OmiWxl2veFAxwWWV_WMY-18" value="" style="rhombus;whiteSpace=wrap;html=1;" parent="dMzhbLmqPAqjWgNeFanf-3" vertex="1">
          <mxGeometry x="282" y="480" width="56" height="50" as="geometry" />
        </mxCell>
        <mxCell id="dMzhbLmqPAqjWgNeFanf-18" value="" style="shape=collate;html=1;" vertex="1" parent="dMzhbLmqPAqjWgNeFanf-3">
          <mxGeometry x="420" y="250" width="15" height="20" as="geometry" />
        </mxCell>
        <mxCell id="dMzhbLmqPAqjWgNeFanf-21" value="5s" style="text;html=1;strokeColor=none;fillColor=none;align=center;verticalAlign=middle;whiteSpace=wrap;rounded=0;" vertex="1" parent="dMzhbLmqPAqjWgNeFanf-3">
          <mxGeometry x="410" y="245" width="60" height="30" as="geometry" />
        </mxCell>
        <mxCell id="dMzhbLmqPAqjWgNeFanf-4" value="Vertical Container" style="swimlane;whiteSpace=wrap;html=1;" vertex="1" parent="1">
          <mxGeometry x="620" y="20" width="200" height="250" as="geometry" />
        </mxCell>
        <mxCell id="dMzhbLmqPAqjWgNeFanf-8" style="edgeStyle=orthogonalEdgeStyle;rounded=0;orthogonalLoop=1;jettySize=auto;html=1;entryX=0.5;entryY=0;entryDx=0;entryDy=0;" edge="1" parent="dMzhbLmqPAqjWgNeFanf-4" source="dMzhbLmqPAqjWgNeFanf-5" target="dMzhbLmqPAqjWgNeFanf-7">
          <mxGeometry relative="1" as="geometry" />
        </mxCell>
        <mxCell id="dMzhbLmqPAqjWgNeFanf-5" value="" style="ellipse;whiteSpace=wrap;html=1;aspect=fixed;" vertex="1" parent="dMzhbLmqPAqjWgNeFanf-4">
          <mxGeometry x="87.5" y="40" width="25" height="25" as="geometry" />
        </mxCell>
        <mxCell id="dMzhbLmqPAqjWgNeFanf-11" style="edgeStyle=orthogonalEdgeStyle;rounded=0;orthogonalLoop=1;jettySize=auto;html=1;exitX=0.75;exitY=1;exitDx=0;exitDy=0;entryX=0.5;entryY=0;entryDx=0;entryDy=0;" edge="1" parent="dMzhbLmqPAqjWgNeFanf-4" source="dMzhbLmqPAqjWgNeFanf-7" target="dMzhbLmqPAqjWgNeFanf-10">
          <mxGeometry relative="1" as="geometry" />
        </mxCell>
        <mxCell id="dMzhbLmqPAqjWgNeFanf-7" value="" style="rounded=0;whiteSpace=wrap;html=1;fillColor=#fad7ac;strokeColor=#b46504;" vertex="1" parent="dMzhbLmqPAqjWgNeFanf-4">
          <mxGeometry x="35" y="90" width="130" height="10" as="geometry" />
        </mxCell>
        <mxCell id="dMzhbLmqPAqjWgNeFanf-13" style="edgeStyle=orthogonalEdgeStyle;rounded=0;orthogonalLoop=1;jettySize=auto;html=1;entryX=0.5;entryY=0;entryDx=0;entryDy=0;" edge="1" parent="dMzhbLmqPAqjWgNeFanf-4" source="dMzhbLmqPAqjWgNeFanf-10" target="dMzhbLmqPAqjWgNeFanf-12">
          <mxGeometry relative="1" as="geometry" />
        </mxCell>
        <mxCell id="dMzhbLmqPAqjWgNeFanf-10" value="" style="shape=collate;html=1;" vertex="1" parent="dMzhbLmqPAqjWgNeFanf-4">
          <mxGeometry x="125" y="130" width="15" height="20" as="geometry" />
        </mxCell>
        <mxCell id="dMzhbLmqPAqjWgNeFanf-12" value="" style="ellipse;whiteSpace=wrap;html=1;aspect=fixed;strokeWidth=6;" vertex="1" parent="dMzhbLmqPAqjWgNeFanf-4">
          <mxGeometry x="117.5" y="180" width="30" height="30" as="geometry" />
        </mxCell>
        <mxCell id="dMzhbLmqPAqjWgNeFanf-14" value="30s" style="text;html=1;strokeColor=none;fillColor=none;align=center;verticalAlign=middle;whiteSpace=wrap;rounded=0;" vertex="1" parent="dMzhbLmqPAqjWgNeFanf-4">
          <mxGeometry x="117.5" y="125" width="60" height="30" as="geometry" />
        </mxCell>
        <mxCell id="dMzhbLmqPAqjWgNeFanf-9" style="edgeStyle=orthogonalEdgeStyle;rounded=0;orthogonalLoop=1;jettySize=auto;html=1;entryX=0.5;entryY=0;entryDx=0;entryDy=0;exitX=0.25;exitY=1;exitDx=0;exitDy=0;fillColor=#60a917;strokeColor=#2D7600;" edge="1" parent="1" source="dMzhbLmqPAqjWgNeFanf-7" target="dMzhbLmqPAqjWgNeFanf-1">
          <mxGeometry relative="1" as="geometry">
            <Array as="points">
              <mxPoint x="688" y="150" />
              <mxPoint x="580" y="150" />
              <mxPoint x="580" y="80" />
              <mxPoint x="414" y="80" />
            </Array>
          </mxGeometry>
        </mxCell>
        <mxCell id="dMzhbLmqPAqjWgNeFanf-20" style="edgeStyle=orthogonalEdgeStyle;rounded=0;orthogonalLoop=1;jettySize=auto;html=1;entryX=1;entryY=0.5;entryDx=0;entryDy=0;" edge="1" parent="1" source="dMzhbLmqPAqjWgNeFanf-18" target="dMzhbLmqPAqjWgNeFanf-1">
          <mxGeometry relative="1" as="geometry">
            <Array as="points">
              <mxPoint x="540" y="115" />
            </Array>
          </mxGeometry>
        </mxCell>
      </root>
    </mxGraphModel>
  </diagram>
</mxfile>
